HIERARCHY
ROOT Hips
{
	OFFSET	0	0	0
	CHANNELS 6  Xposition Yposition Zposition Xrotation Yrotation Zrotation
	JOINT Spine
	{
		OFFSET	0	7.00908	1.40711
		CHANNELS 3  Xrotation Yrotation Zrotation
		JOINT Spine1
		{
			OFFSET	0	11.9997	-2.14281
			CHANNELS 3  Xrotation Yrotation Zrotation
			JOINT Spine2
			{
				OFFSET	0	9.09621	0.974976
				CHANNELS 3  Xrotation Yrotation Zrotation
				JOINT Spine3
				{
					OFFSET	0	10.8855	3.23564
					CHANNELS 3  Xrotation Yrotation Zrotation
					JOINT Spine4
					{
						OFFSET	0	16.1139	-1.64996
						CHANNELS 3  Xrotation Yrotation Zrotation
						JOINT Neck
						{
							OFFSET	0	7.69267	-5.38915
							CHANNELS 3  Xrotation Yrotation Zrotation
							JOINT Head
							{
								OFFSET	0	9.23549	-2.76422
								CHANNELS 3  Xrotation Yrotation Zrotation
								End Site
								{
									OFFSET	0	19.2638	-0.93212
								}
							}
						}
					}
					JOINT LeftShoulder
					{
						OFFSET	-4.62846	19.5852	-9.23549
						CHANNELS 3  Xrotation Yrotation Zrotation
						JOINT LeftArm
						{
							OFFSET	-10.1082	-2.76422	3.54636
							CHANNELS 3  Xrotation Yrotation Zrotation
							JOINT LeftForeArm
							{
								OFFSET	-30.9178	-1.41114	2.20688
								CHANNELS 3  Xrotation Yrotation Zrotation
								JOINT LeftHand
								{
									OFFSET	-25.989	-1.79599	1.85507
									CHANNELS 3  Xrotation Yrotation Zrotation
									End Site
									{
										OFFSET	-9.4847	-0.655447	0.676963
									}
								}
							}
						}
					}
					JOINT RightShoulder
					{
						OFFSET	4.62846	19.5852	-9.23549
						CHANNELS 3  Xrotation Yrotation Zrotation
						JOINT RightArm
						{
							OFFSET	10.1082	-2.76422	3.54636
							CHANNELS 3  Xrotation Yrotation Zrotation
							JOINT RightForeArm
							{
								OFFSET	30.9178	-1.41114	2.20688
								CHANNELS 3  Xrotation Yrotation Zrotation
								JOINT RightHand
								{
									OFFSET	25.989	-1.79599	1.85507
									CHANNELS 3  Xrotation Yrotation Zrotation
									End Site
									{
										OFFSET	9.4847	-0.655447	0.676963
									}
								}
							}
						}
					}
				}
			}
		}
	}
	JOINT LeftUpLeg
	{
		OFFSET	-9.51492	-3.50454	-0.703555
		CHANNELS 3  Xrotation Yrotation Zrotation
		JOINT LeftLeg
		{
			OFFSET	-2.15663	-42.2584	-0.660591
			CHANNELS 3  Xrotation Yrotation Zrotation
			JOINT LeftFoot
			{
				OFFSET	-2.11138	-38.9194	3.34707
				CHANNELS 3  Xrotation Yrotation Zrotation
				JOINT LeftToeBase
				{
					OFFSET	0	-4.8091	-12.773
					CHANNELS 3  Xrotation Yrotation Zrotation
					End Site
					{
						OFFSET	0	-1.92364	-7.69456
					}
				}
			}
		}
	}
	JOINT RightUpLeg
	{
		OFFSET	9.51492	-3.50454	-0.703555
		CHANNELS 3  Xrotation Yrotation Zrotation
		JOINT RightLeg
		{
			OFFSET	2.15663	-42.2584	-0.660591
			CHANNELS 3  Xrotation Yrotation Zrotation
			JOINT RightFoot
			{
				OFFSET	2.11138	-38.9194	3.34707
				CHANNELS 3  Xrotation Yrotation Zrotation
				JOINT RightToeBase
				{
					OFFSET	0	-4.8091	-12.773
					CHANNELS 3  Xrotation Yrotation Zrotation
					End Site
					{
						OFFSET	0	-1.92364	-7.69456
					}
				}
			}
		}
	}
}
MOTION
Frames: 19
Frame Time: 0.020408
 0 -9.53305 2.91081 -0 0 -0 -0 0 -0 -0 0 -0 -0 0 -0 -0 0 -0 -0 0 -0 -0 0 -0 -0 0 -0 -0 0 -0 -0 0 -0 -0 0 -0 -0 0 -0 -0 0 -0 -0 0 -0 -0 0 -0 -0 0 -0 -0 0 -0 -0 0 -0 -0 0 -0 -0 0 -0 -0 0 -0 -0 0 -0 -0 0 -0 -0 0 -0
 66.0037 90.0255 234.009 17.4398 -5.05515 5.25748 3.89872e-06 -0.0164917 0.013545 174.339 -179.967 -179.977 174.598 -179.901 -179.977 177.004 -179.984 -179.986 176.298 -180 -179.995 174.962 -173.387 179.727 178.412 -168.41 178.882 0.0702633 -5.91605 0.141997 160.029 -164.192 -115.385 105.817 -27.7218 118.037 -0 14.0981 -7.74859 1.47186 25.4016 -3.19632 165.177 169.978 113.807 136.268 58.6607 -139.102 -0 2.7921 7.30616 144.974 151.618 -164.905 8.14347 -9.6416 -4.6076 8.98223 -2.62995 -2.96181 176.184 180 -180 176.518 -171.343 -172.917 177.431 -176.375 -179.408 166.209 -179.852 172.058 178.636 180 -180
 66.094 90.0361 233.898 17.4047 -4.76199 5.224 1.84006e-05 -0.0186065 0.0566618 174.354 -179.963 -179.906 174.608 -179.888 -179.906 176.998 -179.981 -179.943 176.34 -179.999 -179.981 175.039 -173.681 179.154 178.45 -169.461 178.82 0.123923 -5.86746 0.250358 160.017 -164.39 -115.73 105.808 -27.82 117.945 -0 13.9926 -7.44823 1.56525 25.9908 -3.40034 165.141 170.093 113.523 135.397 59.0939 -138.079 -0 2.98703 7.30014 145.091 151.919 -165.107 8.12315 -9.59419 -4.64197 9.05469 -2.38684 -2.08098 176.102 180 -180 176.312 -171.87 -173.06 177.687 -175.604 -179.376 166.147 -179.844 172.126 178.601 180 -180
 65.9242 89.9951 233.836 17.2859 -4.50998 5.06296 4.28856e-06 -0.00384913 0.0638369 174.372 -179.992 -179.894 174.615 -179.977 -179.894 176.978 -179.996 -179.936 176.42 -179.999 -179.979 175.226 -173.965 178.671 178.519 -170.43 178.777 0.140134 -5.85827 0.283089 160.142 -164.576 -116.023 105.779 -27.9104 117.939 -0 13.9143 -7.23292 1.54184 26.3926 -3.34992 164.789 170.146 113.298 134.37 59.5933 -136.837 -0 3.04259 7.2795 145.226 152.254 -164.953 7.99233 -9.91368 -4.70447 9.04013 -2.93094 -3.12149 176.077 180 -180 176.581 -172.073 -173.038 177.531 -174.878 -179.109 166.082 -179.955 172.109 178.64 180 -180
 65.9635 89.9837 233.662 17.1663 -4.19201 5.15443 1.19503e-05 -0.0179597 0.0381245 174.388 -179.964 -179.936 174.623 -179.892 -179.936 176.965 -179.982 -179.962 176.481 -179.999 -179.987 175.35 -174.501 178.215 178.573 -171.819 178.776 0.136665 -5.74812 0.275871 160.362 -164.998 -116.27 105.81 -27.9865 117.966 -0 13.7626 -7.15344 1.53175 26.9626 -3.32839 164.299 170.007 113.104 134.214 59.4962 -136.653 -0 3.13336 7.18053 145.551 152.453 -165.311 7.73787 -9.82122 -4.71723 9.33128 -2.73979 -2.36716 175.993 180 -180 176.425 -172.219 -173.147 177.855 -174.035 -179.328 165.938 -180 172.291 178.604 180 -180
 65.9038 89.95 233.488 17.1784 -4.27767 4.93545 3.20921e-05 -0.0277042 0.0663706 174.4 -179.945 -179.889 174.631 -179.834 -179.889 176.96 -179.972 -179.934 176.515 -179.999 -179.978 175.401 -174.622 177.317 178.602 -172.866 178.618 0.158178 -5.98461 0.319819 160.806 -165.136 -116.404 105.918 -27.9815 118.265 -0 13.612 -7.01908 1.46851 27.2072 -3.19093 164.044 169.983 112.924 134.399 59.1856 -136.849 -0 3.3237 7.10947 145.757 153.05 -165.138 7.14098 -9.90949 -4.87292 9.54143 -2.94763 -3.27296 175.97 180 -180 176.611 -172.567 -172.851 177.605 -173.343 -179.363 165.986 179.839 172.443 178.634 180 -180
 65.9219 89.958 233.216 17.2109 -4.10668 5.02789 4.03842e-05 -0.0426867 0.0542053 174.414 -179.915 -179.91 174.622 -179.744 -179.91 176.898 -179.957 -179.946 176.687 -179.999 -179.982 175.858 -175.108 177.151 178.749 -173.957 178.672 0.289247 -6.32732 0.5862 161.49 -165.437 -116.536 106.109 -27.95 118.298 -0 13.4507 -6.90425 1.47862 27.6498 -3.21288 163.949 170.021 112.85 134.441 58.9363 -137.116 -0 3.46777 7.04065 145.908 152.733 -165.535 6.60033 -9.54188 -4.61409 10.0792 -2.38762 -1.28938 175.864 180 -180 176.349 -172.572 -172.96 177.867 -172.747 -179.516 165.896 179.821 172.616 178.561 180 -180
 66.0065 89.9528 233.045 17.2658 -4.24885 5.11918 5.74951e-05 -0.0521717 0.0631421 174.429 -179.896 -179.895 174.629 -179.687 -179.895 176.884 -179.948 -179.937 176.746 -179.999 -179.979 175.991 -175.123 176.588 178.798 -174.533 178.565 0.413702 -6.48107 0.839308 162.287 -165.832 -116.499 106.24 -27.9322 118.282 -0 13.3019 -6.83163 1.48669 27.7976 -3.23039 163.862 170.279 112.903 134.353 58.7788 -137.215 -0 3.65345 6.9882 146.258 153.294 -165.819 6.07369 -9.33041 -4.6999 10.3581 -1.96586 -0.931856 175.808 180 -180 176.519 -172.328 -173.086 177.7 -172.372 -179.531 165.784 179.795 172.903 178.55 180 -180
 65.8129 89.8874 232.937 17.335 -4.7604 5.26991 1.31463e-05 -0.0606282 0.0124237 174.424 -179.879 -179.979 174.62 -179.636 -179.979 176.87 -179.939 -179.988 176.77 -180 -179.996 176.056 -175.347 176.557 178.82 -174.97 178.594 0.581447 -6.42476 1.17924 162.817 -166.15 -116.173 106.221 -27.9341 118.3 -0 13.2256 -6.69431 1.34834 28.117 -2.92939 163.982 170.764 113.403 134.235 58.6012 -137.24 -0 3.85295 7.00498 146.015 153.147 -165.44 6.0069 -9.31626 -4.61926 10.483 -2.23533 -1.30423 175.763 180 -180 176.683 -172.527 -172.847 177.723 -172.179 -179.689 165.564 179.656 172.952 178.553 180 -180
 65.7496 89.8106 232.761 17.5842 -5.30106 5.34464 2.53412e-05 -0.0763526 0.0190163 174.443 -179.847 -179.968 174.672 -179.542 -179.968 176.979 -179.924 -179.981 176.552 -180 -179.994 175.412 -175.081 176.285 178.627 -174.633 178.485 0.614723 -6.4029 1.24655 163.183 -166.521 -115.936 106.109 -28.0072 118.195 -0 13.2916 -6.68454 1.23378 28.4778 -2.68009 164.137 171.339 113.947 133.928 58.5357 -136.972 -0 4.04015 6.9903 145.868 153.384 -165.237 5.55702 -9.38634 -4.81751 10.7256 -2.73481 -2.5582 175.741 180 -180 176.736 -172.778 -172.98 177.575 -172.151 -179.582 165.527 179.591 172.986 178.584 180 -180
 65.8532 89.7499 232.638 17.6966 -5.69617 5.71135 180 -179.936 179.982 174.452 -179.872 179.969 174.686 -179.616 179.969 177.002 -179.936 179.982 176.515 180 179.994 175.304 -174.703 176.218 178.591 -173.999 178.41 0.546411 -6.38038 1.10784 163.183 -166.71 -115.654 106.217 -27.9265 118.418 -0 13.4633 -6.65395 1.14217 28.6931 -2.4808 164.617 171.8 114.778 133.42 58.5366 -136.488 -0 4.17238 6.94694 145.797 153.659 -165.345 5.65434 -9.17914 -4.99948 10.91 -1.92728 -1.36535 175.656 180 -180 176.743 -173.143 -173.326 177.588 -172.173 -179.824 165.423 179.743 173.108 178.548 180 -180
 65.7127 89.6569 232.504 17.8494 -5.93346 5.75595 180 -179.928 179.975 174.453 -179.856 179.959 174.7 -179.568 179.959 177.045 -179.928 179.975 176.417 179.999 179.992 175.031 -174.255 176.127 178.504 -173.226 178.314 0.386974 -6.46666 0.785003 163.127 -166.749 -115.307 106.329 -27.8078 118.795 -0 13.6441 -6.5364 1.18825 28.5596 -2.58106 164.879 172.096 115.263 133.105 58.4084 -136.243 -0 4.35384 6.82903 145.507 153.751 -165.098 5.5224 -9.3547 -4.97172 10.9953 -2.94046 -3.07349 175.646 180 -180 176.828 -173.349 -173.331 177.439 -172.24 -179.605 165.447 179.688 173.064 178.589 180 -180
 65.7333 89.5838 232.333 17.8126 -6.14271 5.93781 180 -179.925 179.954 174.497 -179.85 179.923 174.748 -179.55 179.923 177.084 -179.925 179.954 176.41 179.999 179.985 174.983 -173.933 176.251 178.482 -172.527 178.286 0.278663 -6.88761 0.566849 163.289 -166.658 -115.001 106.457 -27.6594 119.122 -0 13.843 -6.35432 1.27728 28.4237 -2.77468 165.089 172.295 115.603 132.909 58.2254 -136.066 -0 4.5712 6.5944 145.474 153.89 -165.201 5.49803 -9.38775 -4.93296 11.1676 -3.18702 -3.70359 175.62 180 -180 176.986 -173.558 -173.686 177.369 -172.196 -179.327 165.449 179.711 172.988 178.61 180 -180
 65.7329 89.5622 232.174 17.64 -6.60827 5.98465 180 -179.93 179.943 174.569 -179.86 179.905 174.813 -179.579 179.905 177.115 -179.93 179.943 176.474 179.999 179.981 175.12 -173.654 176.56 178.514 -171.773 178.306 0.194028 -7.70272 0.396746 163.776 -166.448 -114.64 106.459 -27.5784 119.161 -0 14.0698 -6.23484 1.442 28.4714 -3.13272 165.422 172.635 115.973 133.184 57.7541 -136.334 -0 4.91804 6.32299 145.656 153.918 -164.989 5.37075 -9.06379 -4.99854 11.2704 -3.39928 -3.74994 175.582 180 -180 177.267 -173.873 -173.722 177.471 -172.074 -179.387 165.296 179.703 173.057 178.606 180 -180
 65.9576 89.608 232.052 17.3744 -6.70665 6.17727 180 -179.938 179.913 174.653 -179.876 179.855 174.904 -179.627 179.855 177.191 -179.938 179.913 176.456 179.998 179.971 175.009 -173.376 176.76 178.472 -171.071 178.297 179.992 -171.415 179.984 164.099 -166.356 -114.48 106.339 -27.5941 118.947 -0 14.3369 -6.20451 1.6391 28.3 -3.56149 165.655 173.039 116.054 133.329 57.3695 -136.559 -0 5.29409 6.06884 146.005 153.649 -165.273 5.29696 -8.94494 -5.03543 11.4431 -3.05752 -2.85093 175.517 180 -180 177.176 -174.037 -174.33 178.151 -171.713 -179.13 165.016 179.79 173.178 178.579 180 -180
 66.0705 89.6169 231.984 16.9657 -7.23346 6.21744 180 -179.952 179.89 174.738 -179.905 179.816 174.99 -179.714 179.816 177.249 -179.952 179.89 176.481 179.998 179.963 175.01 -173.223 176.917 178.467 -170.654 178.303 179.789 -170.964 179.565 164.152 -166.418 -114.207 106.274 -27.5927 118.814 -0 14.5405 -6.19178 1.63922 28.176 -3.56186 165.44 173.347 115.935 133.182 57.1759 -136.427 -0 5.53622 5.77292 146.413 153.724 -165.302 5.36177 -8.7519 -4.8211 11.3573 -3.5609 -3.60821 175.503 180 -180 177.826 -174.238 -174.689 178.08 -171.446 -178.858 164.962 179.644 173.355 178.598 180 -180
 66.1243 89.6395 231.86 16.64 -7.1562 6.10401 180 -179.917 179.879 174.816 -179.835 179.799 175.067 -179.504 179.799 177.3 -179.917 179.879 176.508 179.998 179.96 175.025 -173.235 177.144 178.468 -170.475 178.351 179.614 -170.666 179.203 164.266 -166.649 -113.936 106.191 -27.6034 118.7 -0 14.7111 -6.25245 1.63283 28.0483 -3.54808 164.935 173.65 115.777 133.124 56.9486 -136.31 -0 5.76921 5.52835 146.619 153.746 -165.352 5.48925 -8.7167 -4.69876 11.3187 -3.66001 -3.42039 175.465 180 -180 177.861 -174.337 -174.67 178.481 -170.805 -179.069 164.852 179.665 173.566 178.583 180 -180
 66.3048 89.6575 231.734 16.2993 -7.4435 5.99051 180 -179.91 179.894 174.902 -179.82 179.824 175.146 -179.461 179.824 177.335 -179.91 179.894 176.59 179.998 179.965 175.181 -173.549 177.56 178.514 -170.687 178.489 179.501 -170.04 178.965 164.991 -167.003 -113.988 106.031 -27.6713 118.55 -0 14.8341 -6.38244 1.6591 28.1776 -3.60511 164.057 173.882 115.624 132.948 56.7755 -136.068 -0 6.0578 5.26677 146.987 153.677 -165.165 5.34748 -8.60753 -4.98711 11.3879 -3.8158 -3.21375 175.432 180 -180 178.183 -174.054 -174.95 178.676 -170.612 -178.761 164.984 179.425 173.732 178.565 180 -180
 66.7108 89.7395 231.684 15.9785 -7.4752 6.15971 180 -179.917 179.858 174.986 -179.834 179.763 175.204 -179.503 179.763 177.314 -179.917 179.858 176.799 179.997 179.953 175.698 -173.878 177.891 178.672 -171.056 178.624 179.401 -169.309 178.755 165.899 -167.201 -114.019 106.04 -27.6205 118.674 -0 14.9555 -6.44947 1.74636 28.4567 -3.79462 163.083 173.771 115.182 132.47 56.7928 -135.511 -0 6.25708 4.98842 147.619 153.439 -165.874 5.23195 -8.01905 -4.62748 11.6417 -3.24698 -1.72687 175.348 180 -180 178.147 -174.114 -175.654 179.17 -170.455 -178.695 164.984 179.654 173.883 178.511 180 -180
